<svg width="28" height="27" xmlns="http://www.w3.org/2000/svg">
    <path d="M14.29 16.316a9.222 9.222 0 0 1 2.235.313c1.799.495 2.962 1.505 2.962 2.58 0 1.593-2.431 2.891-5.42 2.891-2.988 0-5.42-1.298-5.42-2.892 0-1.594 2.429-2.892 5.42-2.892zm-1.463 1.281c-.82-.084-1.452.078-1.828.47-.323.335-.441.82-.35 1.436.057.381.411.895.866.895h.032c.395-.018.795-.435 1.062-.781.285-.369.542-.823.626-1.105l.014-.055c.034-.151.062-.452-.08-.66a.45.45 0 0 0-.342-.2zm4.055.457c-.28-.278-.715-.392-1.26-.328a.36.36 0 0 0-.26.157c-.159.23-.066.608-.066.611.1.384.673 1.511 1.217 1.543h.026c.357 0 .61-.436.65-.748.066-.544-.027-.956-.307-1.235zm.78-10.658a3.366 3.366 0 0 1 2.055.699 3.327 3.327 0 0 1-.192 5.423 3.384 3.384 0 0 1-2.956.38v2.337a9.679 9.679 0 0 0-2.276-.313v-4.86h2.37a1.052 1.052 0 0 0 2.051-.325c0-.513-.375-.95-.886-1.031a1.052 1.052 0 0 0-1.165.705h-2.35a3.355 3.355 0 0 1 3.328-3.015zm-8.868.556a3.385 3.385 0 0 1 3.303-.23 3.34 3.34 0 0 1 1.9 2.692h-2.35a1.052 1.052 0 0 0-2.05.325 1.052 1.052 0 0 0 2.051.326l2.35-.003a3.356 3.356 0 0 1-3.366 3.014 3.355 3.355 0 0 1-3.349-3.339 3.326 3.326 0 0 1 1.511-2.785zm-3.7-1.303c.383 0 .857.117 1.388.36.542.24 1.102.631 1.597 1.007a3.711 3.711 0 0 0-1.19 2.722c0 .055.004.112.004.17-.812.078-1.504.061-1.868-.519C4.06 8.85 3.778 7.531 4.29 6.95c.174-.2.452-.301.803-.301zm16.878.576c.888-.227 1.54-.134 1.806.263.393.589-.027 1.753-1.093 3.039-.27.326-.643.427-1.265.338v-.128a3.706 3.706 0 0 0-1.209-2.74c.5-.28 1.055-.566 1.568-.718zm-2.857-2.141a.261.261 0 0 1 .226.155c.216.824.214 1.442.112 2.218a3.781 3.781 0 0 0-1.44-.436l.038-.068c.189-.34.762-1.38.956-1.825.015-.034.05-.048.108-.044zM10.03 4.5c.059.003.199.021.232.12.198.574.799 1.884 1.057 2.443a3.784 3.784 0 0 0-2.366.342c.01-.92.132-1.691.604-2.698.055-.116.252-.207.442-.207zm10.795.447c.297 0 .537.24.537.534a.537.537 0 0 1-1.075 0c0-.295.24-.534.538-.534zm0 .088c-.248 0-.448.2-.448.445 0 .246.2.445.448.445.11-.001.215-.044.293-.12h-.07l-.17-.25h-.175v.25h-.103V5.16h.31a.198.198 0 0 1 .193.2.2.2 0 0 1-.114.18l.158.234a.442.442 0 0 0 .072-.47.448.448 0 0 0-.398-.266l.004-.002z" fill="#FFF" fill-rule="nonzero"/>
</svg>
