<svg width="51" height="25" xmlns="http://www.w3.org/2000/svg" xmlns:xlink="http://www.w3.org/1999/xlink">
    <defs>
        <path id="a" d="M0 0h50v24.096H0z"/>
    </defs>
    <g transform="translate(.5)" fill="none" fill-rule="evenodd">
        <mask id="b" fill="#fff">
            <use xlink:href="#a"/>
        </mask>
        <g mask="url(#b)">
            <g fill="#225E63" fill-rule="nonzero">
                <path d="m33.132 13.877.5.15a.848.848 0 0 1-.158.35.648.648 0 0 1-.267.208.966.966 0 0 1-.408.075c-.2 0-.359-.025-.492-.083a.762.762 0 0 1-.325-.308 1.026 1.026 0 0 1-.141-.559c0-.3.083-.533.241-.7.158-.166.392-.241.683-.241.234 0 .409.05.542.141a.76.76 0 0 1 .292.434l-.5.108a.291.291 0 0 0-.059-.125.34.34 0 0 0-.116-.1.327.327 0 0 0-.15-.033.321.321 0 0 0-.292.158c-.05.075-.075.2-.075.358 0 .2.033.342.092.417.058.075.15.117.258.117.108 0 .192-.034.242-.092a.568.568 0 0 0 .133-.275zM33.832 13.71c0-.3.083-.533.25-.7.166-.166.4-.25.7-.25.308 0 .541.084.708.242.167.167.25.392.25.692 0 .216-.033.391-.108.525a.773.773 0 0 1-.317.316 1.042 1.042 0 0 1-.508.117 1.19 1.19 0 0 1-.517-.1.806.806 0 0 1-.333-.317c-.092-.15-.125-.308-.125-.525zm.566 0c0 .184.034.317.1.4a.338.338 0 0 0 .284.125.358.358 0 0 0 .283-.116c.067-.084.1-.225.1-.425 0-.175-.033-.3-.108-.375-.067-.084-.167-.117-.284-.117a.333.333 0 0 0-.275.125c-.066.067-.1.2-.1.383zM36.031 12.794h.742l.283 1.116.284-1.116h.741v1.833h-.466v-1.4l-.359 1.4h-.416l-.359-1.4v1.4h-.466v-1.833zM38.448 12.794h.941c.209 0 .359.05.459.15.1.1.15.233.15.416a.57.57 0 0 1-.167.434c-.108.108-.283.158-.508.158h-.309v.683h-.566v-1.841zm.566.783h.142c.108 0 .183-.017.233-.058.042-.042.067-.084.067-.142a.2.2 0 0 0-.058-.15c-.042-.042-.109-.058-.217-.058h-.158v.408h-.009zM40.297 12.794h.567v1.383h.883v.45h-1.45zM42.03 12.794h.567v1.833h-.567zM44.13 14.318h-.641l-.092.3h-.575l.692-1.833h.616l.692 1.833h-.592l-.1-.3zm-.117-.391-.2-.658-.2.658h.4zM44.997 12.794h.525l.691 1.016v-1.016h.533v1.833h-.533l-.683-1.008v1.008h-.533v-1.833zM46.996 12.794h1.725v.45h-.575v1.383h-.566v-1.383h-.575v-.45z"/>
            </g>
            <g fill-rule="nonzero">
                <path d="m26.316 15.585 1.642-.517-.533-1.183c-.392.492-.784 1.125-1.109 1.7zm-.558-5.407-3.216-7.166-23.546 1.333L5.52 22.142l12.556-3.957c-.8-1.15-1.091-2.517-.167-3.183 1.034-.75 2.592.116 3.583 1.341.958-1.6 3.65-5.324 4.266-6.165z" fill="#225E63"/>
                <g fill="#FEFEFE">
                    <path d="M21.808 8.19c.984 0 1.784-.75 1.784-1.683s-.8-1.683-1.784-1.683c-.983 0-1.783.75-1.783 1.683 0 .925.8 1.683 1.783 1.683zm-1.458.725h2.917v7.624H20.35V8.915zM18.909 11.14c.025.008.042 0 .042-.025V9.182c0-.025-.017-.05-.042-.067 0 0-.383-.25-1.55-.316-.058-.034-1.083-.042-1.358 0-4.25.341-4.407 3.416-4.407 3.549v.75c0 .091 0 3.233 4.407 3.508.433.033 1.275 0 1.358 0 1.017 0 1.717-.309 1.717-.309a.063.063 0 0 0 .041-.058v-1.808c0-.025-.016-.033-.033-.017 0 0-.317.25-1.7.392-.391.042-.583.025-.725 0-1.966-.333-2.058-1.766-2.058-1.766 0-.025-.008-.067-.008-.084v-.55c0-.025 0-.066.008-.083 0 0 .134-1.541 2.058-1.708h.725a4.342 4.342 0 0 1 1.525.525zM3.495 16.514c0 .025.017.042.042.042h2.84c.026 0 .042-.017.042-.042v-2.216c0-.025.017-.042.042-.042 0 0 4.541.325 4.541-2.716 0-2.408-2.85-2.666-3.783-2.625H3.537c-.025 0-.042.017-.042.042v7.557zm2.874-3.95v-1.99h.7s1.008.04 1.092.732c.016.05.016.392 0 .409-.134.808-1.008.85-1.008.85h-.784z"/>
                </g>
                <path d="M21.892 20.218c.233 0 .417 0 .717-.134 1.033-.541 4.524-9.065 8.207-11.69a.254.254 0 0 0 .066-.066c.025-.033.025-.067.025-.067s0-.175-.541-.175c-3.275-.091-6.682 6.782-8.474 9.499-.025.033-.141 0-.141 0s-1.2-1.417-2.242-1.958c-.025-.009-.141-.05-.266-.042-.084 0-.567.1-.792.333-.267.284-.258.442-.258.783 0 .025.016.142.05.2.258.45 1.416 2.05 2.374 2.933.142.109.367.384 1.275.384z" fill="#2BBC5D"/>
            </g>
            <g fill="#225E63" fill-rule="nonzero">
                <path d="M31.782 5.82h2.725c.541 0 .975.075 1.3.217.333.15.608.358.816.624.217.275.375.592.467.95.1.359.15.742.15 1.15 0 .633-.075 1.125-.217 1.475-.142.35-.342.641-.6.883a2.085 2.085 0 0 1-.825.475c-.4.108-.766.158-1.091.158h-2.725V5.82zm1.833 1.341v3.241h.45c.383 0 .658-.041.817-.124a.883.883 0 0 0 .383-.442c.092-.208.142-.558.142-1.033 0-.633-.1-1.058-.309-1.292-.208-.233-.541-.35-1.025-.35h-.458zM37.748 9.794l1.75-.108c.041.283.116.5.233.65.191.241.458.358.808.358.258 0 .467-.058.608-.183.142-.125.217-.267.217-.425a.566.566 0 0 0-.2-.417c-.133-.125-.45-.233-.942-.341-.808-.184-1.374-.425-1.724-.725-.35-.3-.517-.683-.517-1.15 0-.308.092-.592.267-.867.175-.275.441-.483.8-.641.358-.158.841-.233 1.458-.233.758 0 1.341.141 1.733.425.4.283.633.733.708 1.35l-1.733.1c-.05-.267-.142-.459-.292-.584-.15-.125-.35-.183-.608-.183-.217 0-.375.041-.483.133a.414.414 0 0 0-.158.333c0 .092.041.184.133.259.083.075.291.15.616.216.8.175 1.375.35 1.725.525.35.175.6.4.758.658.159.259.234.559.234.884 0 .383-.109.733-.317 1.05a1.966 1.966 0 0 1-.883.733c-.375.166-.858.25-1.433.25-1.008 0-1.708-.192-2.1-.584-.383-.391-.6-.883-.658-1.483z"/>
            </g>
            <path d="m43.605 9.794 1.75-.108c.042.283.117.5.233.65.192.241.458.358.808.358.259 0 .467-.058.609-.183.141-.125.216-.267.216-.425a.566.566 0 0 0-.2-.417c-.133-.125-.45-.233-.941-.341-.808-.184-1.375-.425-1.725-.725a1.465 1.465 0 0 1-.516-1.15c0-.308.091-.592.266-.867.175-.275.442-.483.8-.641.358-.158.842-.233 1.458-.233.758 0 1.342.141 1.733.425.4.283.633.733.708 1.35l-1.733.1c-.05-.267-.141-.459-.291-.584-.15-.125-.35-.183-.609-.183-.216 0-.374.041-.483.133a.414.414 0 0 0-.158.333c0 .092.042.184.133.259.084.075.292.15.617.216.8.175 1.375.35 1.724.525.35.175.6.4.759.658.158.259.233.559.233.884 0 .383-.108.733-.317 1.05a1.966 1.966 0 0 1-.883.733c-.375.166-.858.25-1.433.25-1.008 0-1.708-.192-2.1-.584-.391-.391-.608-.883-.658-1.483z" fill="#225E63" fill-rule="nonzero"/>
        </g>
    </g>
</svg>
