<svg width="32" height="21" xmlns="http://www.w3.org/2000/svg">
    <path d="M11.86 4c.797 0 1.405.665 1.35 1.479l-.365 5.424c0 2.463 1.815 2.92 3.22 2.92.469 0 .884-.099 1.246-.294a7.787 7.787 0 0 1-.127-2.136l.06-.904.002-.022.002-.034c0-.008 0-.017.002-.026l.004-.051.016-.237.01-.171.028-.393.023-.342.014-.203.237-3.531.1-1.479h1.736c.796 0 1.404.665 1.35 1.479l-.089 1.312h.017l-.252 3.735c-.145 2.152.645 3.298 2.272 3.298.073 0 .144-.005.215-.01a3.614 3.614 0 0 1-.07-.996L23.453 4h5.17c1.993 0 3.512 1.664 3.375 3.695l-.346 5.278c-.137 2.032-1.88 3.695-3.871 3.695h-1.548c-.289 0-.566-.038-.83-.105-.399-.098-.853-.373-1.087-.642a4.787 4.787 0 0 1-2.8.893c-1.519 0-2.663-.51-3.396-1.45-.877.97-2.014 1.45-3.174 1.45-.733 0-1.997-.145-2.473-.416l-.182 3.124c-.055.813-.752 1.478-1.55 1.478H9.007l.187-2.781.831-12.74.08-1.193.01-.154.01-.132zm4.147 14-.123 1.813A1.293 1.293 0 0 1 14.619 21h-.507a1.095 1.095 0 0 1-1.102-1.188l.043-.625A1.294 1.294 0 0 1 14.319 18h1.688zm4 0-.123 1.813A1.294 1.294 0 0 1 18.618 21h-.505a1.096 1.096 0 0 1-1.103-1.188l.044-.625A1.292 1.292 0 0 1 18.318 18h1.69zm11 0-.108 1.635c-.05.751-.679 1.365-1.398 1.365h-8.494l.108-1.635c.05-.75.68-1.365 1.398-1.365h8.494zm-22-14-.568 8.456C8.307 14.405 6.637 16 4.729 16H3.247C1.339 16-.116 14.405.015 12.456l.331-4.912C.477 5.595 2.146 4 4.056 4h4.951zm-3 3H3.902c-.268 0-.517.226-.535.484l-.359 5.032c-.017.258.2.484.467.484h1.604c.266 0 .517-.226.535-.484L6.007 7zm22.528 0h-2.13l-.397 5.528c-.018.251.202.472.472.472h1.623c.27 0 .522-.22.541-.472l.362-5.055c.018-.252-.203-.473-.471-.473zM5.007 0l-.123 1.813A1.293 1.293 0 0 1 3.619 3h-.507c-.65 0-1.147-.534-1.102-1.188l.043-.625A1.294 1.294 0 0 1 3.319 0h1.688zm4 0-.123 1.813A1.294 1.294 0 0 1 7.618 3h-.506A1.095 1.095 0 0 1 6.01 1.812l.043-.625A1.293 1.293 0 0 1 7.318 0h1.69zm1.128 0 1.923.02c.647.007.992.715.945 1.392l-.037.503c-.006.648-.52 1.095-1.182 1.085l-.617-.004c-.644-.051-1.167-.668-1.16-1.316L10.135 0z" fill="#040415" fill-rule="evenodd"/>
</svg>
