<svg width="24" height="24" xmlns="http://www.w3.org/2000/svg">
    <path d="m17.056 1.07.069.242a8.074 8.074 0 0 1 .092 3.675 22.976 22.976 0 0 1-1.174 3.85.422.422 0 0 0 .05.408.304.304 0 0 0 .346.113l2.474-.881.335 2.199c.025.167.145.294.292.311.147.017.286-.08.34-.238.523-1.52 1.3-4.29 1.1-6.893l.004.061c1.92 2.225 3.028 5.083 3.028 7.976.001 5.814-4.037 10.74-9.6 11.904a12.26 12.26 0 0 1-5.015-.083c4.7-2.341 7.375-7.134 7.375-7.134l1.697.837a.383.383 0 0 0 .377-.028.37.37 0 0 0 .165-.335l-.868-6.499a.65.65 0 0 0-.309-.47.67.67 0 0 0-.565-.06l-5.83 1.992a.65.65 0 0 0-.15 1.16l1.326.868s-.708 1.653-3.801 4.64c-1.742 1.687-3.402 2.298-4.522 2.507a11.73 11.73 0 0 1-3.32-4.499c-2.236-5.376-.4-11.476 4.416-14.592 3.5-2.439 7.925-2.716 11.668-1.031z" fill="#040415" fill-rule="nonzero"/>
</svg>
