<svg width="21" height="32" xmlns="http://www.w3.org/2000/svg">
    <path d="M14.813 0c2.882 0 5.218 2.323 5.218 5.19v21.62c0 2.867-2.336 5.19-5.218 5.19H5.248C2.367 32 .031 29.677.031 26.81V5.19C.03 2.322 2.367 0 5.248 0zm0 2.595H5.248A2.602 2.602 0 0 0 2.64 5.189v21.622a2.602 2.602 0 0 0 2.61 2.594h9.564a2.602 2.602 0 0 0 2.609-2.594V5.189a2.602 2.602 0 0 0-2.609-2.594zM10.031 24l.124.005a1.517 1.517 0 0 1 1.397 1.509c0 .835-.68 1.513-1.521 1.513-.84 0-1.522-.678-1.522-1.513 0-.795.615-1.446 1.397-1.509L10.03 24zm3.043-19.243a1.3 1.3 0 0 1 1.305 1.297 1.3 1.3 0 0 1-1.18 1.291l-.125.006H6.987a1.3 1.3 0 0 1-1.304-1.297 1.3 1.3 0 0 1 1.179-1.291l.125-.006h6.087z" fill="#040415" fill-rule="nonzero"/>
</svg>
