<svg width="35" height="24" xmlns="http://www.w3.org/2000/svg">
    <path d="M31.504 0c1.858 0 3.379 1.435 3.493 3.247l.007.22v17.066c0 1.841-1.45 3.347-3.279 3.46l-.221.007h-28C1.645 24 .124 22.565.01 20.753l-.006-.22V3.467C.004 1.626 1.452.12 3.282.007L3.504 0h28zm0 2.667h-28a.806.806 0 0 0-.798.67l-.01.13v17.066c0 .398.293.728.677.79l.13.01h28c.402 0 .735-.29.798-.67l.01-.13V3.467a.803.803 0 0 0-.676-.79l-.131-.01zm-3.231 12.8c1.04 0 1.884.835 1.884 1.866 0 1.031-.843 1.867-1.884 1.867a1.876 1.876 0 0 1-1.885-1.867c0-1.03.844-1.866 1.885-1.866zM17.503 6.4c3.123 0 5.654 2.507 5.654 5.6 0 3.093-2.53 5.6-5.653 5.6-3.123 0-5.654-2.507-5.654-5.6 0-3.093 2.531-5.6 5.654-5.6zm0 2.667c-1.635 0-2.96 1.313-2.96 2.933 0 1.62 1.325 2.933 2.96 2.933 1.636 0 2.962-1.313 2.962-2.933 0-1.62-1.326-2.933-2.961-2.933zM6.735 4.8c1.041 0 1.885.836 1.885 1.867 0 1.03-.844 1.866-1.885 1.866A1.876 1.876 0 0 1 4.85 6.667c0-1.031.844-1.867 1.884-1.867z" fill="#040415" fill-rule="nonzero"/>
</svg>
