<svg width="27" height="20" xmlns="http://www.w3.org/2000/svg">
    <g fill="none" fill-rule="evenodd">
        <path d="M18.298 2C19.238 2 20 2.819 20 3.829V16.17c0 1.01-.762 1.829-1.702 1.829H1.702C.762 18 0 17.181 0 16.171V3.83C0 2.819.762 2 1.702 2h16.596zm0 1H1.702c-.34 0-.647.299-.695.713L1 3.829V16.17c0 .434.278.769.61.822l.092.007h16.596c.34 0 .647-.299.695-.713l.007-.116V3.83c0-.434-.278-.769-.61-.822L18.298 3z" fill="#212B36"/>
        <path fill="#212B36" d="M0 6h20v5H0z"/>
        <path d="M18 1a9 9 0 1 1 0 18 9 9 0 0 1 0-18z" fill="#FFF" fill-rule="nonzero"/>
        <path d="M18 2a8 8 0 1 1 0 16 8 8 0 0 1 0-16zm0 1a7 7 0 1 0 0 14 7 7 0 0 0 0-14z" fill="#212B36"/>
        <path d="M18 8.5a1.5 1.5 0 1 1 0 3 1.5 1.5 0 0 1 0-3zm-4 0a1.5 1.5 0 1 1 0 3 1.5 1.5 0 0 1 0-3zm8 0a1.5 1.5 0 1 1 0 3 1.5 1.5 0 0 1 0-3z" fill="#212B36"/>
    </g>
</svg>
