<svg width="21" height="17" xmlns="http://www.w3.org/2000/svg" xmlns:xlink="http://www.w3.org/1999/xlink">
    <defs>
        <path id="a" d="M0 0h20.366v15.6H0z"/>
    </defs>
    <g transform="translate(.5 .8)" fill="none" fill-rule="evenodd">
        <mask id="b" fill="#fff">
            <use xlink:href="#a"/>
        </mask>
        <path d="M4.415 13.58c0-.305-.24-.504-.65-.504-.205 0-.428.053-.582.225-.12-.145-.29-.225-.547-.225-.172 0-.343.04-.48.186v-.159h-.359v1.27h.36v-.701c0-.225.153-.33.393-.33.24 0 .36.118.36.33v.702h.359v-.702c0-.225.17-.33.393-.33.24 0 .36.118.36.33v.702h.393v-.795zm4.741-.477v-.384h-.36v.384h-.324v.251h.325v.583c0 .291.154.463.564.463.154 0 .326-.04.445-.093l-.102-.238a.693.693 0 0 1-.308.066c-.171 0-.24-.08-.24-.211v-.57h.582v-.251h-.582zm3.2.159v-.159h-.359v1.27h.36v-.714c0-.212.12-.331.342-.331.068 0 .154.013.222.026l.103-.264c-.069-.014-.171-.014-.24-.014a.522.522 0 0 0-.428.186zm-4.843-.186c-.41 0-.684.16-.684.41 0 .213.205.332.564.371l.171.014c.189.026.291.066.291.132 0 .093-.137.159-.376.159-.24 0-.428-.066-.548-.133l-.17.212c.187.106.444.159.7.159.48 0 .754-.172.754-.41 0-.225-.223-.344-.565-.384l-.171-.013c-.154-.014-.274-.04-.274-.12 0-.092.12-.145.308-.145.205 0 .41.066.514.106l.154-.225c-.172-.093-.411-.133-.668-.133zm9.79.186v-.159h-.36v1.27h.36v-.714c0-.212.12-.331.342-.331.068 0 .154.013.222.026l.103-.264c-.069-.014-.171-.014-.24-.014a.522.522 0 0 0-.428.186zM14.015 14.4c.24 0 .411-.04.582-.146l-.17-.225a.826.826 0 0 1-.429.12c-.29 0-.496-.16-.496-.41 0-.239.205-.398.496-.411.154 0 .291.04.428.12l.171-.226c-.17-.106-.342-.146-.582-.146-.53 0-.872.278-.872.662s.342.662.872.662zm2.448-1.297h-.36v.159c-.12-.12-.29-.186-.513-.186-.462 0-.822.278-.822.662s.36.662.822.662c.24 0 .41-.066.513-.185v.159h.36v-1.271zm-.822.225c.291 0 .497.172.497.41 0 .225-.206.41-.497.41-.308-.013-.496-.185-.496-.41 0-.225.188-.41.496-.41zm-5.613.41c0 .397.342.662.838.662.24 0 .48-.053.668-.172l-.171-.199a.977.977 0 0 1-.48.133c-.222 0-.444-.08-.496-.305h1.215v-.105c.018-.41-.29-.676-.753-.676-.479 0-.821.265-.821.662zm1.232-.119h-.856c.035-.172.189-.304.445-.304.223 0 .377.106.411.304zm8.506-1.019h-.36v.662c-.12-.12-.29-.186-.513-.186-.462 0-.822.278-.822.662s.36.662.822.662c.24 0 .41-.066.513-.185v.159h.36V12.6zm-.822.728c.291 0 .497.172.497.41 0 .225-.206.41-.497.41-.308-.013-.496-.185-.496-.41 0-.225.188-.41.496-.41zm-12.51-.225h-.36v.159c-.12-.12-.29-.186-.513-.186-.462 0-.821.278-.821.662s.359.662.821.662c.24 0 .41-.066.513-.185v.159h.36v-1.271zm-.839.225c.291 0 .497.172.497.41 0 .225-.206.41-.497.41-.308-.013-.496-.185-.496-.41 0-.225.188-.41.496-.41z" fill="#000" mask="url(#b)"/>
        <path d="M13.178 1.2v9.6H7.787V1.2h5.39z" fill="#FF5F00" fill-rule="nonzero" mask="url(#b)"/>
        <path d="M10.183 1.283A6.459 6.459 0 0 0 6.299 0C2.817 0 0 2.683 0 6s2.817 6 6.299 6c1.47 0 2.817-.483 3.884-1.283C8.73 9.633 7.786 7.917 7.786 6c0-1.917.945-3.617 2.397-4.717z" fill="#EB001B" fill-rule="nonzero" mask="url(#b)"/>
        <path d="M14.067 12a6.459 6.459 0 0 1-3.884-1.283c1.47-1.1 2.397-2.8 2.397-4.717 0-1.917-.945-3.617-2.397-4.717A6.46 6.46 0 0 1 14.067 0c3.482 0 6.299 2.7 6.299 6 0 3.317-2.817 6-6.299 6z" fill="#F79E1B" fill-rule="nonzero" mask="url(#b)"/>
    </g>
</svg>
