<svg width="36" height="24" xmlns="http://www.w3.org/2000/svg">
    <g fill="none" fill-rule="evenodd">
        <rect stroke="#D2D7E0" stroke-width=".75" fill="#FFF" x=".375" y=".375" width="35.25" height="23.25" rx="3"/>
        <g fill-rule="nonzero">
            <path fill="#F26122" d="M14 5h8v12h-8z"/>
            <path d="M14.967 12A8 8 0 0 1 18 5.706a8.066 8.066 0 0 0-10.869.868 7.972 7.972 0 0 0 0 10.852A8.066 8.066 0 0 0 18 18.294 7.97 7.97 0 0 1 14.967 12z" fill="#EA1D25"/>
            <path d="M28.495 16.17v-.34h.08-.15v.34h.07zm1.12.04v-.42h-.05l-.06.3-.06-.3h-.06v.42-.32l.06.26.06-.26v.32h.11z" fill="#F69E1E"/>
            <path d="M31 12.008a8.01 8.01 0 0 1-4.529 7.186A8.072 8.072 0 0 1 18 18.3a8 8 0 0 0 3.064-6.292A8 8 0 0 0 18 5.716a8.057 8.057 0 0 1 8.48-.911A7.995 7.995 0 0 1 31 12.008z" fill="#F69E1E"/>
        </g>
    </g>
</svg>
